<svg width="284" height="257" viewBox="0 0 284 257" fill="none" xmlns="http://www.w3.org/2000/svg">
<path d="M274.031 0H9.9693C4.46341 0 0 4.45586 0 9.95245V247.048C0 252.544 4.46341 257 9.9693 257H274.031C279.537 257 284 252.544 284 247.048V9.95245C284 4.45586 279.537 0 274.031 0Z" fill="#F0BD04"/>
<path d="M94.8038 86.8327L81.11 148.518H56.0025L29.9178 54.4429C25.4585 52.8159 22.4688 50.9721 20.9487 48.9116L22.5938 35.4019H60.2403L61.8854 48.9116C60.0363 51.0838 57.1014 52.8739 53.0808 54.282L64.6557 102.294C66.3689 109.109 67.7296 116.008 68.7323 122.964L69.0613 125.733H71.3447C71.45 119.33 72.482 111.625 74.4408 102.619L89.115 36.5416H114.035L128.709 102.294C130.447 110.216 131.642 117.106 132.296 122.964L132.625 125.894H134.908C135.127 119.278 136.431 111.52 138.82 102.619L151.698 54.9323C147.133 53.3031 143.982 51.2962 142.245 48.9116L143.89 35.4019H179.908L181.537 48.9116C179.47 51.513 175.829 53.6283 170.613 55.2575L143.226 148.518H117.628L104.424 86.997C102.902 79.6175 101.76 72.4011 100.999 65.3479L100.67 62.0928H98.3868C97.9547 69.5818 96.7604 77.8284 94.8038 86.8327Z" fill="white"/>
<path d="M234.196 53.1424C230.415 52.1549 226.521 51.6624 222.612 51.6774C218.587 51.6774 215.353 52.6814 212.912 54.6895C210.471 56.6975 209.251 59.5179 209.253 63.1507C209.253 66.7879 210.177 69.6346 212.024 71.6907C213.871 73.7469 217.51 75.5414 222.941 77.0743L237.45 81.3049C245.275 83.5844 251.497 87.1384 256.119 91.9668C260.741 96.7952 263.053 103.875 263.055 113.205C263.055 124.275 259.06 133.009 251.072 139.41C243.083 145.811 233.164 149.01 221.315 149.008C214.527 148.975 207.768 148.128 201.183 146.485C194.28 144.808 188.546 142.448 183.981 139.407V135.662C183.981 133.819 184.362 130.672 185.123 126.222C185.884 121.773 186.971 118.138 188.384 115.317H203.858C205.599 118.685 206.632 123.188 206.957 128.827C210.769 130.456 215.202 131.271 220.256 131.271C225.31 131.271 229.467 130.077 232.729 127.691C235.991 125.306 237.622 121.889 237.622 117.439C237.655 115.717 237.491 113.997 237.131 112.312C236.804 110.956 235.799 109.491 234.114 107.917C232.43 106.343 230.011 105.067 226.859 104.09L210.079 99.2095C193.016 94.3241 184.485 83.4738 184.485 66.6587C184.485 56.7851 188.071 48.891 195.244 42.9764C202.416 37.0619 211.791 34.1057 223.368 34.1079C234.943 34.1079 246.274 36.7126 257.359 41.9221V45.6666C257.359 47.5125 256.979 50.6592 256.218 55.1066C255.457 59.554 254.37 63.1879 252.957 66.0083H237.457C235.608 63.4003 234.521 59.1117 234.196 53.1424Z" fill="white"/>
<path d="M73.7268 225.021L69.1205 210.729C68.1532 207.836 67.3975 204.223 66.8536 199.89L66.5838 197.719H65.3138C64.7789 202.1 63.8697 206.427 62.596 210.654L58.3385 225.037H45.4574L34.0404 189.487C31.4434 188.585 29.6612 187.5 28.6938 186.232L29.6019 179.266H50.804L51.7088 186.232C50.623 187.498 48.7816 188.583 46.1845 189.487L51.4489 212.555H52.7156C53.3736 209.361 54.1589 206.076 55.0714 202.702L61.2339 179.453H71.3809L77.4546 202.521L79.7182 212.562H80.9882C83.2234 202.371 84.7336 195.526 85.5188 192.026L86.0617 189.494C83.344 188.531 81.5311 187.445 80.623 186.239L81.5311 179.272H101.647L102.552 186.239C101.526 187.625 99.6228 188.77 96.8437 189.675L85.509 225.021H73.7268Z" fill="white"/>
<path d="M124.235 225.211C117.075 225.211 111.775 223.312 108.333 219.513C104.891 215.713 103.173 209.966 103.177 202.271C103.177 194.583 105.095 188.704 108.932 184.633C112.768 180.562 118.28 178.527 125.468 178.527C132.654 178.527 137.984 180.336 141.459 183.953C144.933 187.571 146.67 193.221 146.67 200.905C146.67 208.596 144.721 214.566 140.824 218.816C136.926 223.067 131.396 225.198 124.235 225.211ZM116.213 201.513C116.213 211.163 119.113 215.987 124.912 215.985C127.873 215.985 130.067 214.89 131.493 212.7C132.918 210.51 133.628 206.907 133.621 201.89C133.621 192.475 130.66 187.767 124.738 187.767C121.84 187.767 119.696 188.807 118.306 190.887C116.915 192.967 116.221 196.506 116.223 201.503L116.213 201.513Z" fill="white"/>
<path d="M178.473 190.394C173.882 190.394 170.711 191.27 168.958 193.022V213.715C173.854 214.62 177.207 215.885 179.016 217.512L178.111 224.479H152.201L151.293 217.512C152.137 216.369 153.799 215.344 156.278 214.438V189.291C154.163 188.568 152.502 187.543 151.293 186.216L152.201 179.249C155.144 178.571 158.15 178.208 161.17 178.166C163.829 178.166 166.033 178.226 167.783 178.346V184.045C169.266 182.347 171.087 180.975 173.13 180.018C175.306 178.965 177.28 178.437 179.052 178.435C180.825 178.433 182.051 178.587 182.731 178.898L182.461 190.657C181.14 190.471 179.807 190.384 178.473 190.394Z" fill="white"/>
<path d="M186.265 160.254C189.351 159.507 192.512 159.113 195.688 159.078C198.588 159.078 201.034 159.169 203.028 159.351V214.437C205.384 215.342 207.044 216.367 208.01 217.512L207.105 224.479H186.265L185.36 217.512C186.207 216.369 187.867 215.344 190.341 214.437V170.295C188.227 169.57 186.566 168.544 185.36 167.217L186.265 160.254ZM219.881 224.479L203.857 201.049L213.823 188.114C212.96 187.66 212.215 187.01 211.649 186.216L212.553 179.249H232.482L233.39 186.216C232.059 187.904 229.552 189.23 225.869 190.194L217.169 200.146L227.409 213.613C231.153 214.456 233.785 215.752 235.305 217.502L234.397 224.469L219.881 224.479Z" fill="white"/>
<path d="M248.104 225.382C243.305 225.382 240.904 223.151 240.902 218.688C240.9 214.225 243.3 211.994 248.104 211.994C252.908 211.994 255.31 214.225 255.31 218.688C255.31 223.151 252.908 225.382 248.104 225.382ZM241.083 178.346C241.083 173.281 241.294 167.854 241.718 162.064H254.582C254.944 167.431 255.126 172.496 255.129 177.259C255.129 188.538 254.132 198.187 252.138 206.206H243.998C242.052 198.367 241.081 189.08 241.083 178.346Z" fill="white"/>
</svg>
